<?xml version="1.0" encoding="utf-8"?>
<!-- Generator: Adobe Illustrator 19.1.0, SVG Export Plug-In . SVG Version: 6.00 Build 0)  -->
<svg version="1.1" id="Layer_1" xmlns="http://www.w3.org/2000/svg" xmlns:xlink="http://www.w3.org/1999/xlink" x="0px" y="0px"
	 viewBox="-269 191 100 100" style="enable-background:new -269 191 100 100;" xml:space="preserve">
<style type="text/css">
	.st0{fill:#green;}
</style>
<path class="st0" d="M-194.7,242.9c0.5-0.5,0.7-1.1,0.7-1.7c0-0.6-0.2-1.2-0.7-1.7l-20.1-20.1c-1-1-2.4-1-3.3,0c-1,1-1,2.4,0,3.3
	l15.8,15.8h-40.5c-1.3,0-2.4,1.1-2.4,2.4c0,1.3,1.1,2.4,2.4,2.4h41l-16.3,16.3c-1,1-1,2.4,0,3.3c1,1,2.4,1,3.3,0L-194.7,242.9z"/>
<path class="st0" d="M-169,241c0-27.1-22.9-50-50-50s-50,22.9-50,50s22.9,50,50,50S-169,268.1-169,241z M-264.2,241
	c0-24.5,20.7-45.2,45.2-45.2s45.2,20.7,45.2,45.2s-20.7,45.2-45.2,45.2S-264.2,265.5-264.2,241z"/>
</svg>
