<svg id="Layer_1" xmlns="http://www.w3.org/2000/svg" viewBox="-269 191 100 100"><style>.st0{fill:#FFFFFF;}</style><path class="st0" d="M-221.2 253.4c0-12.5 9.5-23 21.7-24.4 1.4-.2 2.9-.4 4.4-.4 4.8.2 9 1.5 12.7 3.8 2-5.3 2-10.9-1.2-16.4-3.5-5.8-10.1-9.4-17.6-9.4-6.9 0-13.2 3-16.7 8.3l-3.3 4.6-3-4.6c-3.5-5.2-9.8-8.3-16.7-8.3-7.5 0-14.2 3.6-17.6 9.4-7.6 12.7 2.3 25.3 14.3 36.9 4.9 4.9 17.3 15.7 23.2 20.6 1.5-1.2 3.4-2.9 5.6-4.8-3.7-4.1-5.8-9.5-5.8-15.3zm11.4 20.7c-4.5 3.8-8.2 7-8.9 7.6l-2.5 2.2-2.3-2.2c-3.7-3-20.3-17.2-26.3-23-8.2-8-27.3-26.8-15.5-46.5 4.9-8.3 13.9-13.2 24.2-13.2 7.6 0 14.9 2.9 19.9 7.8 5-5.1 12.3-7.8 19.9-7.8 10.2 0 19.2 4.9 24.3 13.2 5.3 9 4.4 18 .7 25.6 3.4 4.1 5.2 9.4 5.2 15 0 8.3-4.2 15.7-10.6 20l-.1.1c-4.1 3.2-9.3 5-14.8 5-4.9.1-9.4-1.3-13.2-3.8zm13.6-2.7c10.2 0 18.5-8.3 18.5-18.5 0-10.1-8.2-18.4-18.4-18.5h-.1c-10.1 0-18.5 8.3-18.5 18.5 0 10.1 8.2 18.4 18.3 18.5h.2z"/><path class="st0" d="M-196.7 250.3v-3.6c-1 .2-1.6.8-1.6 2 0 1 .7 1.5 1.6 1.6zm3.4 7.5c0-.4-.1-.8-.2-1-.2-.5-.8-.9-1.4-1.1v4c.7 0 1.2-.4 1.4-1.1.2-.2.2-.6.2-.8zm-3.4-15.1v-1.3c0-.5.3-.8.8-.8.7 0 .8.3.8.8v1.3c1.9 0 5.2.7 5.2 3 0 1.1-.9 2.1-2 2.1s-2-1.1-3.3-1.1v4c3.3 1 6.6 2.4 6.6 6.4 0 4.6-3.7 6.6-6.6 6.9v1.3c0 .4-.3.8-.8.8-.7 0-.8-.3-.8-.8v-1.1c-2-.2-6.6-.7-6.6-3.4 0-1.3 1-2.4 2.1-2.4 1 0 2.4 1.3 4.6 1.3v-4.6c-4.9-1.4-6.5-3.3-6.5-5.9 0-3.7 2.9-6.2 6.5-6.5z"/><path class="st0" d="M-197.4 248.2v.3c-.1 0-.1-.2 0-.3z"/></svg>