<svg id="Layer_1" xmlns="http://www.w3.org/2000/svg" viewBox="-269 191 100 100"><style>.st0{fill:#green;}</style><path class="st0" d="M-194.7 242.9c.5-.5.7-1.1.7-1.7 0-.6-.2-1.2-.7-1.7l-20.1-20.1c-1-1-2.4-1-3.3 0-1 1-1 2.4 0 3.3l15.8 15.8h-40.5c-1.3 0-2.4 1.1-2.4 2.4 0 1.3 1.1 2.4 2.4 2.4h41l-16.3 16.3c-1 1-1 2.4 0 3.3 1 1 2.4 1 3.3 0l20.1-20z"/><path class="st0" d="M-169 241c0-27.1-22.9-50-50-50s-50 22.9-50 50 22.9 50 50 50 50-22.9 50-50zm-95.2 0c0-24.5 20.7-45.2 45.2-45.2s45.2 20.7 45.2 45.2-20.7 45.2-45.2 45.2-45.2-20.7-45.2-45.2z"/></svg>