<svg id="Layer_1" xmlns="http://www.w3.org/2000/svg" viewBox="76 -66 189.8 84.5"><style>.st0{fill:#FFFFFF;}</style><path class="st0" d="M79.6 11.1H77V9h7.6v2.1H82v6.6h-2.4v-6.6zM87 9h2.4v3.3h3.1V9h2.4v8.7h-2.4v-3.3h-3.1v3.3H87V9zM97.4 9h7v2.1h-4.6v1.3h4.2v1.9h-4.2v1.4h4.7v2.1h-7.1V9zM107 9h4.1c1.3 0 2.3.3 2.8.9.5.5.8 1.2.8 2 0 1.3-.7 2.2-1.8 2.7l2.1 3h-2.8l-1.8-2.6h-1v2.6H107V9zm4 4.1c.8 0 1.3-.4 1.3-1 0-.7-.5-1-1.3-1h-1.6v2.1h1.6v-.1zM117.2 9h7v2.1h-4.6v1.3h4.2v1.9h-4.2v1.4h4.7v2.1h-7.1V9zM126.2 12.5c.8-.1 1.3-.5 1.2-1.2h-.9V8.9h2.4v2c0 1.8-1 2.5-2.5 2.5l-.2-.9zM129.8 16.4l1.3-1.6c.9.7 1.8 1 2.8 1 .6 0 1-.2 1-.6 0-.4-.3-.6-1.5-.8-1.9-.4-3.3-.9-3.3-2.7 0-1.6 1.3-2.8 3.4-2.8 1.5 0 2.6.4 3.6 1.2l-1.1 1.6c-.8-.6-1.7-.9-2.4-.9-.6 0-.9.2-.9.6 0 .4.3.6 1.5.8 2 .4 3.2 1.1 3.2 2.7 0 1.8-1.4 2.8-3.5 2.8-1.5.1-3-.4-4.1-1.3zM144.5 9h2.5l2.1 3.4 2.1-3.4h2.5v8.7h-2.4v-5l-2.2 3.4-2.2-3.4v5h-2.4V9zM155.5 13.3c0-2.5 2-4.6 4.7-4.6s4.7 2 4.7 4.5-2 4.5-4.7 4.5-4.7-1.9-4.7-4.4zm6.9 0c0-1.3-.9-2.4-2.2-2.4-1.3 0-2.2 1.1-2.2 2.3 0 1.3.9 2.4 2.2 2.4 1.4.1 2.2-1 2.2-2.3zM166.8 9h4.1c1.3 0 2.3.3 2.8.9.5.5.8 1.2.8 2 0 1.3-.7 2.2-1.8 2.7l2.1 3H172l-1.8-2.6h-1v2.6h-2.4V9zm4 4.1c.8 0 1.3-.4 1.3-1 0-.7-.5-1-1.3-1h-1.6v2.1h1.6v-.1zM177 9h7v2.1h-4.6v1.3h4.2v1.9h-4.2v1.4h4.7v2.1H177V9zM193.4 11.1h-2.6V9h7.6v2.1h-2.6v6.6h-2.4v-6.6zM200 13.3c0-2.5 2-4.6 4.7-4.6s4.7 2 4.7 4.5-2 4.5-4.7 4.5-4.7-1.9-4.7-4.4zm7 0c0-1.3-.9-2.4-2.2-2.4-1.3 0-2.2 1.1-2.2 2.3 0 1.3.9 2.4 2.2 2.4 1.3.1 2.2-1 2.2-2.3zM219.1 14.4L215.8 9h2.7l1.8 3.2 1.8-3.2h2.7l-3.3 5.4v3.3h-2.4v-3.3zM225.7 13.3c0-2.5 2-4.6 4.7-4.6s4.7 2 4.7 4.5-2 4.5-4.7 4.5-4.7-1.9-4.7-4.4zm6.9 0c0-1.3-.9-2.4-2.2-2.4-1.3 0-2.2 1.1-2.2 2.3 0 1.3.9 2.4 2.2 2.4 1.3.1 2.2-1 2.2-2.3zM237.1 13.8V8.9h2.5v4.8c0 1.3.6 1.9 1.6 1.9s1.6-.6 1.6-1.8V8.9h2.5v4.8c0 2.8-1.6 4-4.1 4s-4.1-1.1-4.1-3.9zM250 11.1h-2.6V9h7.6v2.1h-2.6v6.6H250v-6.6zM257.3 9h2.4v3.3h3.1V9h2.4v8.7h-2.4v-3.3h-3.1v3.3h-2.4V9z"/><g><path class="st0" d="M100.3-3.5C86.3-3.5 76-13.8 76-26.8v-.2c0-12.9 10.4-23.5 24.5-23.5 14 0 24.3 10.3 24.3 23.3v.2c0 13-10.4 23.5-24.5 23.5zM112.2-27c0-6.6-4.8-12.4-11.9-12.4-7.3 0-11.7 5.6-11.7 12.3v.2c0 6.6 4.8 12.4 11.9 12.4 7.3 0 11.7-5.6 11.7-12.3v-.2zM155.3-4.5v-4.9c-3.1 3.4-7.4 5.7-13.6 5.7-8.5 0-15.5-4.9-15.5-13.8v-.2c0-9.8 7.5-14.4 18.2-14.4 4.5 0 7.8.8 11 1.9v-.8c0-5.3-3.3-8.2-9.7-8.2-4.9 0-8.3.9-12.4 2.4l-3.2-9.8c5-2.2 9.8-3.6 17.5-3.6 14 0 20.1 7.2 20.1 19.4v26.2l-12.4.1zm.3-18.2c-2.2-1-5-1.7-8.2-1.7-5.5 0-8.8 2.2-8.8 6.2v.2c0 3.4 2.9 5.5 7 5.5 6 0 10-3.3 10-7.9v-2.3zM189.8-3.7c-6.3 0-13.4-2.1-19.3-6.8l5.5-8.4c4.9 3.5 10 5.4 14.2 5.4 3.7 0 5.4-1.3 5.4-3.4v-.2c0-2.8-4.4-3.7-9.3-5.2-6.3-1.9-13.5-4.8-13.5-13.5v-.2c0-9.2 7.4-14.3 16.5-14.3 5.7 0 11.9 1.9 16.8 5.2l-4.9 8.8c-4.5-2.6-8.9-4.2-12.2-4.2-3.1 0-4.7 1.3-4.7 3.1v.2c0 2.5 4.3 3.7 9.2 5.4 6.3 2.1 13.6 5.1 13.6 13.4v.2c0 10-7.5 14.5-17.3 14.5zM211.7-54.6V-66h13.5v11.4h-13.5zm.4 50.1v-45.1h12.8v45.1h-12.8zM247.8-3.7c-6.3 0-13.4-2.1-19.3-6.8l5.5-8.4c4.9 3.5 10 5.4 14.2 5.4 3.7 0 5.4-1.3 5.4-3.4v-.2c0-2.8-4.4-3.7-9.3-5.2-6.3-1.9-13.5-4.8-13.5-13.5v-.2c0-9.2 7.4-14.3 16.5-14.3 5.7 0 11.9 1.9 16.8 5.2l-4.9 8.8c-4.5-2.6-8.9-4.2-12.2-4.2-3.1 0-4.7 1.3-4.7 3.1v.2c0 2.5 4.3 3.7 9.2 5.4 6.3 2.1 13.6 5.1 13.6 13.4v.2c-.1 10-7.6 14.5-17.3 14.5z"/></g></svg>